<svg width="750" height="924" viewBox="0 0 750 924" fill="none" xmlns="http://www.w3.org/2000/svg">
<g clip-path="url(#clip0_4555_638)">
<path d="M52.1702 548.787C52.1702 294.974 374.759 64.4526 374.759 64.4526C374.759 64.4526 697.348 292.64 697.348 548.787C697.348 726.944 552.916 871.376 374.759 871.376C196.602 871.376 52.1702 726.944 52.1702 548.787Z" fill="url(#paint0_linear_4555_638)"/>
<path d="M430.201 326.896L404.187 389.571L411.827 422.022L433.19 447.365L460.389 399.792L430.201 326.896Z" fill="#999290"/>
<path d="M430.219 321.449L402.348 388.598L410.217 422.022L433.473 449.628L462.37 399.103L430.219 321.449ZM430.537 331.458L458.196 398.236L439.486 410.138L422.42 398.961L430.555 331.458H430.537ZM440.052 412.632L440.901 411.323L457.241 400.924L434.622 440.485L439.963 412.579L440.052 412.632ZM406.061 388.899L428.291 335.314L420.687 398.502L412.269 415.267L406.061 388.881V388.899ZM412.906 417.955L421.642 400.571L438.389 411.535L432.394 442.82L413.489 420.378L412.923 417.955H412.906Z" fill="#F3E7D2"/>
<g opacity="0.5">
<path d="M631.915 555.207L628.908 545.922C626.998 540.051 621.817 535.629 615.662 535.223C608.04 534.71 599.764 529.599 590.373 524.417C561.565 508.501 575.5 483.388 557.09 474.581C541.174 466.959 521.968 496.564 511.764 506.75C495.406 523.091 496.767 476.757 471.195 478.808C460.708 479.657 436.374 487.031 423.022 487.332C418.759 487.421 415.063 490.268 413.825 494.353C409.97 507.245 396.406 532.252 350.496 517.679C309.786 504.769 332.175 405.257 333.996 390.631C335.835 375.988 342.768 344.704 349.435 332.289C377.854 279.358 405.92 277.342 411.049 277.112C426.47 276.423 448.205 288.784 474.873 296.76C501.348 304.683 560.468 365.926 566.127 348.577C567.542 344.244 567.984 339.451 567.843 334.712C567.418 320.087 561.388 306.169 551.555 295.31L534.065 275.981C534.065 275.981 524.161 264.202 509.713 253.362C495.264 242.539 502.161 232.387 487.589 229.947C473.017 227.506 476.465 232.564 467.234 234.439C458.002 236.313 449.407 227.984 433.721 223.386C433.137 223.209 432.43 222.979 431.634 222.714C419.396 218.487 405.814 222.236 397.449 232.122L375.608 257.924L354.617 265.122C354.617 265.122 312.88 245.952 280.234 245.174C280.181 245.174 280.11 245.174 280.057 245.174C275.53 245.103 271.462 247.932 269.694 252.088C269.694 252.088 242.495 343.307 224.279 338.886C212.059 335.632 199.308 341.98 194.533 353.705L194.197 354.519C185.408 376.094 167.635 392.771 145.546 400.181C132.937 404.408 126.217 418.22 130.797 430.705C130.868 430.917 130.956 431.147 131.045 431.36C142.222 467.543 154.177 474.192 162.188 473.467C163.886 473.308 164.858 475.359 163.638 476.562C155.043 485.051 150.162 496.811 150.993 508.872C151.878 521.888 158.775 534.391 177.591 543.605C196.868 553.049 200.033 555.878 202.297 556.78C219.345 563.607 211.069 548.84 209.512 544.366C200.051 517.149 184.064 533.419 188.432 504.716C194.94 461.954 195.895 453.837 195.895 453.837C195.807 449.628 198.265 445.773 202.138 444.093L210.627 440.397C213.951 438.946 217.612 441.564 217.347 445.171L217.311 445.525C216.25 459.355 239.082 568.965 334.474 544.543C346.039 541.589 358.596 548.539 367.031 554.835C372.514 558.938 373.009 566.967 367.969 571.618L360.576 578.427C357.535 581.221 353.538 582.742 349.4 582.636L322.855 581.999C322.855 581.999 312.332 579.647 304.622 589.957C301.032 594.732 298.45 598.941 296.716 602.071C294.983 605.202 296.504 609.145 299.917 610.312C309.538 613.619 329.416 618.377 351.256 611.338C358.207 609.092 370.179 596.112 377.607 587.428C381.515 582.848 388.43 582.317 392.957 586.279C403.25 595.263 418.813 612.665 417.928 635.248C416.637 668.761 395.84 689.7 370.604 695.394C345.367 701.089 345.969 671.007 330.919 699.975C322.271 716.598 329.734 717.589 325.578 733.399C318.628 759.855 303.348 785.958 281.384 789.619C259.419 793.297 246.916 786.047 236.906 804.686C226.897 823.326 225.217 789.743 203.199 797.595C185.16 804.032 179.254 800.159 172.144 799.841C194.852 818.127 237.631 847.59 298.839 862.41C375.432 880.944 438.814 866.389 467.782 857.776C446.684 855.566 384.822 886.497 381.851 827.022C381.144 812.768 413.825 796.215 386.272 781.838C382.877 780.069 378.65 779.061 377.572 773.597C375.308 762.013 409.634 738.085 412.906 734.531L413.383 734.018C438.142 707.367 453.316 673.235 456.517 637.017C457.949 620.817 459.116 607.642 459.116 607.642C459.824 605.202 462.052 601.222 469.073 598.941C474.449 597.208 480.391 592.911 485.909 587.764C498.872 575.668 518.29 573.457 533.269 582.919C540.696 587.605 547.877 593.034 554.473 597.739C560.185 601.824 567.931 601.452 573.272 596.907C579.815 591.337 588.163 584.015 593.044 579.718C595.696 577.383 599.092 576.039 602.629 575.898L617.802 575.332C628.007 574.96 635.01 564.933 631.862 555.224L631.915 555.207ZM272.93 517.891C265.326 512.179 254.184 498.314 244.458 485.157C242.901 483.035 243.397 480.046 245.59 478.596C252.363 474.068 289.024 470.054 286.565 452.511C283.948 433.8 273.708 398.784 277.122 386.971C279.244 379.614 281.366 373.336 282.657 369.657C283.647 366.81 286.194 364.67 289.218 364.546C291.782 364.44 293.533 365.678 293.586 371.284C293.639 375.635 290.544 383.204 295.036 383.893C301.456 384.901 301.597 378.464 304.958 370.842C308.318 363.238 310.139 348.595 308.636 340.177C307.133 331.759 302.871 327.461 306.797 317.062C308.972 311.315 314.614 305.231 319.247 300.934C324.376 296.159 331.644 294.161 338.4 296.053C341.742 296.99 344.66 298.741 345.438 301.907C345.58 302.508 345.65 303.109 345.633 303.71C345.562 307.071 343.316 309.989 340.256 311.386C306.178 326.771 321.617 318.46 324.446 346.366C326.586 367.393 315.268 417.141 309.255 440.06C303.242 462.98 290.102 490.321 302.765 512.639C304.568 515.822 306.337 518.44 307.982 520.562C310.422 523.727 307.946 528.29 303.967 527.972C294.842 527.229 282.374 524.983 272.93 517.891ZM520.483 557.169C511.057 553.297 500.41 553.686 491.285 558.248C481.435 563.182 469.939 568.877 468.949 569.089C449.301 573.192 432.412 561.272 423.711 554.358C421.324 552.465 421.306 548.858 423.658 546.912L428.504 542.916C428.504 542.916 430.007 541.536 432.235 539.502C443.819 528.891 458.975 523.02 474.679 523.055L501.684 523.108C512.224 523.126 522.092 528.308 528.123 536.956C532.367 543.075 537.354 550.237 541.563 556.285C544.304 560.211 540.219 565.269 535.798 563.448C530.864 561.414 525.399 559.168 520.483 557.152V557.169Z" fill="#EDD4AB"/>
<path d="M374.265 875.797C350.655 875.797 324.924 873.251 297.813 866.672C251.355 855.424 206.931 833.495 169.386 803.254L158.881 794.783L172.357 795.384C174.284 795.473 176.088 795.773 177.839 796.074C183.056 796.958 188.98 797.949 201.731 793.404C215.844 788.363 223.607 797.294 228.241 802.617C229.125 803.643 230.275 804.952 231.035 805.624C231.442 805.164 232.114 804.262 233.033 802.564C241.328 787.108 251.992 786.825 264.318 786.506C269.128 786.383 274.575 786.241 280.676 785.233C301.279 781.785 315.179 755.611 321.316 732.249C322.89 726.272 322.607 722.876 322.324 719.286C321.9 714.034 321.458 708.622 327.011 697.923C331.962 688.409 335.782 684.076 340.221 682.997C344.695 681.918 348.303 684.447 351.469 686.693C355.943 689.859 360.576 693.113 369.631 691.079C389.986 686.499 412.198 669.362 413.507 635.071C414.321 614.044 399.147 597.562 390.039 589.603C388.748 588.472 387.086 587.923 385.388 588.047C383.655 588.171 382.081 588.967 380.949 590.293C368.34 605.042 358.79 613.531 352.601 615.529C329.628 622.939 308.813 618.058 298.45 614.468C295.585 613.478 293.303 611.285 292.225 608.456C291.146 605.644 291.376 602.531 292.826 599.896C295.16 595.705 297.937 591.46 301.067 587.269C309.45 576.075 320.715 577.136 323.279 577.56L349.488 578.179C352.494 578.25 355.359 577.171 357.57 575.137L364.962 568.329C366.395 567.002 367.137 565.216 367.031 563.271C366.925 561.325 365.97 559.522 364.379 558.354C356.668 552.607 345.421 546.276 335.552 548.787C304.003 556.869 276.945 551.687 255.139 533.401C221.096 504.84 212.218 453.925 212.89 445.154L212.926 444.782C212.926 444.782 212.926 444.57 212.767 444.446C212.59 444.323 212.448 444.376 212.395 444.411L203.906 448.107C201.678 449.08 200.263 451.273 200.316 453.713V454.014L200.281 454.314C200.246 454.65 199.238 462.98 192.8 505.335C190.855 518.121 192.783 519.289 197.416 522.1C202.244 525.036 208.858 529.033 213.668 542.862C213.845 543.375 214.128 544.047 214.447 544.79C216.392 549.441 219.328 556.48 215.172 560.689C211.405 564.509 205.074 562.599 200.635 560.813C199.609 560.406 198.672 559.84 197.115 558.92C194.144 557.152 188.627 553.88 175.646 547.514C157.484 538.618 147.704 525.69 146.572 509.102C145.794 497.766 149.508 486.466 156.865 477.376C145.246 474.564 135.166 459.585 126.836 432.704L126.624 432.155C124.006 425.011 124.378 417.3 127.685 410.421C131.01 403.506 136.846 398.36 144.114 395.901C165 388.881 181.765 373.159 190.077 352.75L190.413 351.937C196.019 338.196 211.033 330.715 225.376 334.517C225.376 334.517 233.193 335.826 249.657 295.434C258.553 273.628 265.344 250.957 265.414 250.727L265.591 250.249C268.12 244.325 273.815 240.469 280.093 240.646H280.27C310.086 241.354 346.605 256.669 354.793 260.259L372.991 254.034L394.036 229.151C403.515 217.957 419.184 213.642 433.031 218.416C433.756 218.664 434.393 218.876 434.923 219.035C441.591 220.998 446.914 223.527 451.618 225.773C457.79 228.709 462.264 230.849 466.314 230.018C468.896 229.487 469.975 228.762 471.337 227.825C474.891 225.402 478.181 223.81 488.279 225.508C498.518 227.223 500.994 232.794 503.169 237.711C504.867 241.531 506.618 245.474 512.312 249.736C527.008 260.736 536.983 272.55 537.407 273.045L554.791 292.251C565.597 304.188 571.786 319.185 572.211 334.5C572.37 340.247 571.733 345.429 570.283 349.868C569.364 352.715 567.383 354.731 564.713 355.562C555.994 358.286 541.793 347.94 517.459 329.424C501.843 317.54 484.158 304.082 473.565 300.916C463.467 297.892 453.97 294.214 445.57 290.977C431.829 285.654 419.962 281.056 411.19 281.463C404.099 281.781 378.951 286.503 353.29 334.305C347.154 345.747 340.221 376.077 338.347 391.109C338.134 392.842 337.675 395.459 337.056 399.085C332.652 424.798 319.265 503.072 351.787 513.382C369.295 518.935 383.354 519.006 393.594 513.594C403.197 508.519 407.565 499.588 409.546 492.991C411.332 487.049 416.69 482.964 422.88 482.822C430.096 482.663 441.255 480.187 451.105 478.012C458.763 476.314 466.013 474.705 470.788 474.316C486.687 473.043 493.814 486.572 499.031 496.44C500.817 499.835 503.806 505.494 505.345 505.742C505.592 505.742 506.671 505.441 508.581 503.531C510.579 501.533 513.108 498.562 515.779 495.396C527.38 481.726 543.261 462.998 558.93 470.496C569.045 475.342 571.221 484.184 573.325 492.744C575.73 502.506 578.206 512.604 592.442 520.456C593.521 521.039 594.582 521.641 595.626 522.224C603.407 526.575 610.127 530.324 615.892 530.713C623.656 531.226 630.553 536.761 633.047 544.454L636.053 553.739C637.981 559.698 637.044 566.047 633.453 571.194C629.863 576.322 624.222 579.399 617.962 579.629L602.788 580.195C600.277 580.284 597.854 581.256 595.962 582.919C590.391 587.817 582.433 594.785 576.137 600.161C569.222 606.05 559.266 606.475 551.891 601.222C550.264 600.055 548.584 598.835 546.886 597.615C541.722 593.866 536.381 589.993 530.899 586.544C517.777 578.268 500.517 580.054 488.915 590.877C482.195 597.137 475.97 601.24 470.417 603.026C465.607 604.583 463.997 606.935 463.449 608.402L460.903 637.282C457.631 674.296 441.891 709.684 416.602 736.901L416.125 737.413C415.258 738.351 413.578 739.712 410.147 742.454C385.724 761.978 381.303 769.635 381.887 772.606C382.311 774.781 383.337 775.436 386.414 776.868C387.051 777.169 387.687 777.47 388.289 777.788C395.805 781.714 400.067 786.241 401.34 791.653C403.232 799.735 397.75 807.215 392.922 813.83C389.544 818.445 386.06 823.22 386.219 826.669C386.874 839.596 390.358 848.386 396.883 853.532C408.644 862.799 429.211 858.926 445.747 855.796C454.695 854.116 462.423 852.648 468.189 853.249L490.242 855.548L468.984 861.879C444.898 869.042 412.287 875.691 374.194 875.691L374.265 875.797ZM187.035 805.641C220.866 830.294 259.578 848.315 299.9 858.077C337.003 867.061 371.453 868.317 401.252 865.805C397.75 864.603 394.461 862.887 391.472 860.553C382.93 853.833 378.208 842.603 377.448 827.199C377.112 820.638 381.551 814.572 385.83 808.701C389.721 803.378 393.735 797.896 392.763 793.757C392.126 791.051 389.261 788.346 384.239 785.711C383.744 785.445 383.231 785.215 382.7 784.968C379.464 783.465 374.565 781.166 373.239 774.392C371.099 763.516 387.581 749.28 404.647 735.627C406.769 733.929 409.157 732.02 409.67 731.489L410.147 730.976C434.11 705.192 449.018 671.661 452.113 636.592L454.872 606.369C455.774 603.274 458.639 597.632 467.729 594.697C471.991 593.317 477.226 589.798 482.92 584.493C497.457 570.928 519.156 568.718 535.656 579.134C541.369 582.742 546.833 586.703 552.121 590.523C553.801 591.743 555.463 592.946 557.073 594.095C561.122 596.996 566.622 596.748 570.442 593.494C576.703 588.171 584.626 581.239 590.161 576.34C593.574 573.333 597.96 571.583 602.505 571.423L617.679 570.858C621.145 570.734 624.275 569.018 626.256 566.189C628.236 563.342 628.767 559.822 627.688 556.533L624.682 547.248C623.285 542.951 619.536 539.874 615.344 539.591C607.598 539.06 599.693 534.657 591.346 529.988C590.32 529.404 589.259 528.821 588.216 528.237C570.584 518.493 567.365 505.406 564.783 494.883C562.696 486.359 561.211 481.408 555.163 478.507C545.648 473.945 531.766 490.321 522.57 501.144C519.652 504.575 517.14 507.546 514.877 509.81C511.181 513.506 507.644 515.044 504.071 514.496C498.129 513.594 494.946 507.564 491.25 500.578C485.608 489.896 480.904 482.363 471.531 483.141C467.357 483.477 460.407 485.015 453.05 486.642C442.811 488.906 431.192 491.488 423.092 491.665C420.74 491.718 418.724 493.274 418.034 495.538C415.576 503.761 410.041 514.92 397.75 521.428C385.335 527.99 368.994 528.113 349.152 521.818C309.29 509.173 323.155 428.106 328.372 397.599C328.956 394.204 329.416 391.533 329.593 390.012C331.308 376.271 338.294 343.572 345.527 330.132C372.638 279.624 400.226 273.098 410.837 272.638C421.448 272.178 434.11 277.077 448.788 282.754C457.436 286.096 466.367 289.545 476.129 292.481C488.261 296.106 505.84 309.476 522.852 322.421C535.568 332.095 556.737 348.188 561.901 347.215C561.901 347.215 561.901 347.18 561.901 347.162C563.032 343.696 563.545 339.54 563.404 334.8C563.032 321.59 557.639 308.609 548.266 298.246L530.775 278.916C530.581 278.686 520.889 267.244 507.042 256.881C499.491 251.222 496.962 245.527 495.123 241.354C493.142 236.879 492.399 235.217 486.846 234.28C479.489 233.042 478.234 233.891 476.359 235.182C474.697 236.313 472.433 237.87 468.1 238.754C461.15 240.169 454.978 237.233 447.833 233.838C443.43 231.751 438.443 229.363 432.448 227.613C431.811 227.436 431.033 227.17 430.166 226.87C419.732 223.28 407.936 226.516 400.809 234.952L378.191 261.691L354.369 269.844L352.76 269.101C352.353 268.907 311.36 250.302 280.128 249.559H279.987C277.422 249.471 274.982 251.133 273.832 253.592C273.019 256.28 266.422 277.908 257.898 298.776C244.352 331.988 233.652 345.677 223.218 343.13C213.085 340.442 202.545 345.694 198.619 355.315L198.283 356.128C188.998 378.924 170.288 396.485 146.944 404.319C141.956 406 137.942 409.536 135.661 414.276C133.397 418.98 133.149 424.25 134.936 429.131L135.254 429.998C146.484 466.358 157.555 469.382 161.781 469.011C164.434 468.781 166.892 470.178 168.006 472.601C169.12 475.023 168.625 477.8 166.733 479.675C158.81 487.509 154.672 498.031 155.397 508.536C156.317 521.924 164.204 532.092 179.537 539.608C192.853 546.134 198.566 549.53 201.643 551.351C202.739 552.006 203.535 552.483 203.942 552.642C206.082 553.509 207.479 553.862 208.345 554.004C207.956 552.218 206.807 549.441 206.294 548.221C205.887 547.266 205.551 546.435 205.321 545.78C201.554 534.957 196.921 532.145 192.836 529.67C185.815 525.425 181.411 521.34 184.046 504.009C189.847 465.88 191.244 455.252 191.456 453.554C191.456 447.665 194.94 442.36 200.352 440.007L208.841 436.311C211.829 435.003 215.207 435.356 217.877 437.249C220.548 439.141 221.98 442.218 221.733 445.472L221.697 445.843C221.114 453.483 229.85 500.649 260.816 526.645C280.305 543.004 304.71 547.567 333.342 540.245C346.57 536.85 360.382 544.383 369.649 551.28C373.345 554.039 375.591 558.248 375.838 562.829C376.068 567.374 374.282 571.759 370.94 574.854L363.547 581.663C359.639 585.253 354.546 587.216 349.276 587.039L321.864 586.296C321.599 586.243 313.942 584.829 308.123 592.592C305.223 596.448 302.676 600.356 300.536 604.211C300.289 604.653 300.36 605.06 300.466 605.308C300.554 605.538 300.766 605.927 301.315 606.121C310.634 609.34 329.327 613.743 349.859 607.111C354.21 605.714 363.318 597.261 374.194 584.546C376.864 581.415 380.596 579.541 384.699 579.24C388.784 578.94 392.727 580.266 395.805 582.954C406.097 591.938 423.251 610.719 422.297 635.425C421.023 668.301 401.57 692.936 371.523 699.709C358.631 702.627 351.221 697.393 346.305 693.926C344.996 693.007 342.803 691.468 342.237 691.61C341.848 691.698 339.638 692.653 334.774 702.008C330.388 710.444 330.671 713.857 331.043 718.579C331.343 722.364 331.732 727.068 329.769 734.513C320.909 768.238 303.065 790.45 282.038 793.969C275.336 795.084 269.553 795.243 264.442 795.367C252.557 795.667 246.598 795.826 240.726 806.756C238.869 810.222 236.164 814.272 231.866 814.749C227.41 815.244 224.386 811.778 221.468 808.418C216.374 802.564 212.448 798.939 204.614 801.733C197.08 804.421 191.439 805.429 186.947 805.641H187.035ZM460.832 574.324C441.767 574.324 426.488 562.174 420.97 557.806C418.795 556.073 417.522 553.473 417.504 550.697C417.486 547.903 418.706 545.268 420.864 543.499L425.621 539.573L429.264 536.231C441.679 524.877 457.755 518.617 474.555 518.617H474.697L501.701 518.67C513.692 518.687 524.922 524.576 531.766 534.427C536.01 540.546 540.997 547.69 545.206 553.756C547.558 557.134 547.417 561.573 544.835 564.792C542.253 568.01 537.955 569.107 534.135 567.55L518.82 561.255C510.562 557.859 501.259 558.213 493.283 562.21C471.637 573.05 470.7 573.245 469.869 573.422C466.792 574.059 463.767 574.359 460.849 574.359L460.832 574.324ZM474.555 527.459C459.965 527.459 446.012 532.888 435.224 542.739L431.316 546.311L426.47 550.308C426.47 550.308 426.329 550.432 426.329 550.608C426.329 550.785 426.417 550.856 426.452 550.874C431.988 555.277 448.753 568.612 467.782 564.792C468.613 564.456 472.38 562.758 489.304 554.287C499.579 549.141 511.552 548.698 522.163 553.067L537.478 559.362C537.619 559.415 537.743 559.469 537.92 559.256C538.097 559.044 538.026 558.938 537.92 558.814C533.693 552.748 528.724 545.586 524.48 539.467C519.298 532.004 510.756 527.53 501.666 527.512L474.661 527.459H474.538H474.555ZM468.047 564.739C468.047 564.739 468.012 564.739 467.976 564.739C467.994 564.739 468.012 564.739 468.047 564.739ZM304.374 532.411C304.126 532.411 303.861 532.411 303.596 532.375C289.625 531.226 278.413 527.547 270.26 521.411C263.522 516.353 253.636 505.035 240.885 487.774C239.418 485.794 238.834 483.265 239.241 480.842C239.665 478.419 241.08 476.261 243.114 474.9C245.501 473.29 249.498 472.123 255.033 470.478C266.334 467.136 283.417 462.114 282.162 453.094C281.331 447.205 279.721 439.601 278.024 431.536C274.204 413.463 270.242 394.787 272.86 385.715C274.982 378.376 277.086 372.115 278.466 368.172C280.093 363.556 284.319 360.302 289.006 360.107C291.446 360.001 293.48 360.691 295.019 362.159C297.618 364.617 297.954 368.508 297.99 371.231C297.99 372.858 297.725 374.609 297.442 376.307C297.335 377.014 297.176 377.969 297.07 378.818C297.636 377.775 298.29 375.9 298.768 374.556C299.352 372.911 300.006 371.054 300.872 369.074C303.95 362.106 305.577 348.453 304.25 340.972C303.861 338.85 303.26 336.923 302.676 335.066C301.014 329.813 299.281 324.366 302.641 315.524C304.657 310.218 309.22 304.241 316.205 297.733C322.554 291.826 331.503 289.563 339.567 291.844C346.605 293.825 348.958 297.857 349.7 300.899C349.93 301.853 350.036 302.844 350.019 303.852C349.912 308.751 346.782 313.313 342.043 315.453L337.745 317.398C330.477 320.67 324.605 323.305 322.996 324.667C323.191 325.286 323.615 326.294 323.969 327.143C325.507 330.839 327.859 336.445 328.814 345.977C331.432 371.779 315.339 434.207 313.499 441.245C312.315 445.755 310.917 450.282 309.432 455.075C303.472 474.281 297.3 494.158 306.585 510.517C308.141 513.258 309.768 515.734 311.448 517.909C313.676 520.774 313.977 524.541 312.244 527.742C310.634 530.695 307.663 532.464 304.356 532.464L304.374 532.411ZM288.971 369.021C288.033 369.25 287.22 370.046 286.831 371.125C285.487 374.963 283.435 381.046 281.366 388.209C279.368 395.141 283.417 414.329 286.689 429.733C288.422 437.956 290.067 445.72 290.934 451.909C293.25 468.462 271.763 474.793 257.545 479.002C253.689 480.134 249.303 481.425 248.03 482.292L247.995 482.557C260.056 498.898 269.588 509.898 275.565 514.372C282.374 519.483 292.03 522.578 304.303 523.586C304.392 523.586 304.409 523.586 304.462 523.498C304.516 523.391 304.498 523.356 304.462 523.303C302.535 520.809 300.66 517.962 298.892 514.867C287.715 495.166 294.771 472.477 300.979 452.44C302.446 447.736 303.808 443.297 304.94 438.982C311.483 414.028 322.006 366.545 320.007 346.844C319.176 338.62 317.213 333.951 315.798 330.538C311.236 319.609 315.179 317.841 334.12 309.317L338.4 307.389C340.027 306.646 341.141 305.161 341.176 303.657C341.176 303.41 341.176 303.18 341.105 302.968C340.769 301.624 338.789 300.792 337.179 300.333C332.068 298.9 326.339 300.368 322.236 304.188C316.417 309.599 312.403 314.728 310.917 318.636C308.654 324.614 309.626 327.709 311.112 332.378C311.749 334.411 312.491 336.71 312.969 339.398C314.596 348.577 312.739 364.104 308.972 372.628C308.247 374.291 307.663 375.918 307.115 377.474C305.311 382.585 302.835 389.57 294.329 388.244C292.384 387.943 290.774 386.988 289.678 385.467C287.503 382.461 288.139 378.429 288.723 374.874C288.935 373.548 289.165 372.186 289.147 371.32C289.147 370.188 289.041 369.463 288.953 369.003L288.971 369.021Z" fill="#E6965E"/>
<g opacity="0.46">
<path d="M374.265 873.144C350.832 873.144 325.331 870.615 298.432 864.107C252.345 852.948 208.292 831.196 171.03 801.202L166.821 797.807L172.215 798.054C173.984 798.125 175.629 798.408 177.379 798.709C182.915 799.646 189.21 800.689 202.598 795.915C215.013 791.476 221.751 799.239 226.207 804.368C228.082 806.525 229.992 808.771 231.247 808.612C231.849 808.542 233.193 807.834 235.333 803.837C242.902 789.725 252.363 789.495 264.353 789.177C269.252 789.053 274.805 788.911 281.083 787.868C302.942 784.207 317.514 757.096 323.845 732.939C325.525 726.519 325.225 722.735 324.924 719.074C324.517 713.981 324.128 709.17 329.327 699.143C333.872 690.389 337.197 686.463 340.823 685.579C344.112 684.765 346.942 686.764 349.913 688.851C354.405 692.016 359.975 695.96 370.197 693.643C397.379 687.507 414.993 665.1 416.142 635.159C416.991 613.018 401.234 595.864 391.773 587.587C389.951 585.996 387.599 585.217 385.176 585.394C382.736 585.571 380.507 586.703 378.916 588.56C370.462 598.446 358.897 610.701 351.77 613C329.54 620.163 309.361 615.423 299.299 611.957C297.176 611.214 295.496 609.605 294.683 607.5C293.887 605.431 294.046 603.115 295.125 601.187C297.406 597.102 300.112 592.946 303.172 588.878C311.006 578.426 321.44 579.93 323.014 580.213L349.417 580.849C353.114 580.973 356.633 579.611 359.356 577.1L366.749 570.291C368.747 568.452 369.808 565.853 369.667 563.147C369.525 560.406 368.181 557.877 365.953 556.232C357.782 550.131 345.757 543.446 334.881 546.222C304.197 554.074 277.953 549.087 256.837 531.367C223.572 503.443 214.871 453.872 215.526 445.366L215.561 445.012C215.649 443.933 215.172 442.925 214.288 442.306C213.403 441.687 212.307 441.563 211.317 442.006L202.828 445.702C199.609 447.099 197.575 450.282 197.646 453.801V453.925V454.049C197.646 454.137 196.62 462.679 190.183 504.981C187.973 519.518 191.014 521.357 196.055 524.417C200.546 527.14 206.683 530.854 211.175 543.782C211.37 544.33 211.67 545.055 212.006 545.869C213.775 550.113 216.215 555.931 213.297 558.885C211.281 560.936 207.567 560.795 201.643 558.407C200.794 558.071 199.928 557.558 198.495 556.692C195.506 554.906 189.918 551.599 176.831 545.179C159.588 536.726 150.304 524.541 149.243 508.978C148.412 496.669 153.204 484.396 162.418 475.288C146.59 476.65 135.732 452.422 129.383 431.854L129.17 431.289C126.801 424.816 127.137 417.848 130.125 411.623C133.132 405.363 138.42 400.694 145.016 398.483C166.645 391.232 183.976 374.945 192.588 353.829L192.924 353.015C198.018 340.512 211.706 333.704 224.757 337.17C236.836 340.07 257.686 286.22 268.014 251.575L268.085 251.381C270.172 246.5 274.805 243.387 279.916 243.387C279.969 243.387 280.04 243.387 280.093 243.387H280.27C310.971 244.13 349.099 260.701 354.705 263.212L374.583 256.403L396.105 230.972C404.877 220.609 419.396 216.612 432.218 221.034C432.996 221.299 433.668 221.529 434.234 221.688C440.707 223.58 445.924 226.074 450.539 228.267C456.941 231.308 461.981 233.714 466.916 232.706C470.01 232.069 471.478 231.061 472.911 230.088C476.129 227.878 478.747 226.657 487.907 228.196C496.732 229.681 498.624 233.926 500.817 238.86C502.568 242.804 504.549 247.26 510.792 251.947C525.24 262.77 535.038 274.353 535.444 274.831L552.899 294.107C563.28 305.567 569.222 319.963 569.647 334.641C569.806 340.088 569.187 344.951 567.843 349.107C567.012 351.671 565.296 352.697 564.005 353.086C556.189 355.527 539.017 342.475 519.139 327.355C502.568 314.746 485.449 301.729 474.396 298.422C464.404 295.434 454.943 291.773 446.596 288.554C432.572 283.125 420.475 278.439 411.155 278.863C401.605 279.287 376.634 285.406 351.027 333.102C344.749 344.81 337.692 375.599 335.782 390.826C335.57 392.488 335.11 395.229 334.509 398.695C330.017 424.975 316.329 504.964 351.062 515.981C369.26 521.764 384.009 521.764 394.903 516.017C405.319 510.517 410.023 500.914 412.163 493.822C413.613 488.977 417.982 485.652 423.004 485.546C430.485 485.387 441.785 482.875 451.76 480.665C459.329 478.985 466.491 477.393 471.089 477.039C485.255 475.943 491.639 488.022 496.768 497.748C499.544 503.018 502.179 507.988 505.026 508.43C506.494 508.66 508.351 507.669 510.544 505.476C512.613 503.407 515.054 500.525 517.883 497.182C528.919 484.166 544.039 466.34 557.869 472.972C566.853 477.269 568.78 485.139 570.832 493.451C573.254 503.284 575.996 514.425 591.24 522.861C592.301 523.444 593.362 524.046 594.406 524.629C602.47 529.139 609.438 533.029 615.787 533.454C622.489 533.896 628.431 538.689 630.606 545.374L633.613 554.658C635.293 559.822 634.462 565.322 631.367 569.779C628.272 574.235 623.373 576.888 617.944 577.082L602.77 577.648C599.64 577.772 596.634 578.957 594.299 581.026C588.729 585.925 580.788 592.875 574.51 598.233C568.533 603.327 559.902 603.698 553.536 599.153C551.909 597.986 550.246 596.783 548.549 595.545C543.349 591.779 537.973 587.87 532.42 584.386C518.272 575.473 499.686 577.383 487.2 589.037C482.779 593.158 476.147 598.516 469.692 600.603C463.485 602.602 461.539 605.997 460.938 607.942L458.356 637.14C455.137 673.571 439.646 708.392 414.745 735.185L414.268 735.698C413.49 736.529 411.544 738.103 408.573 740.473C400.155 747.211 377.766 765.108 379.358 773.207C380.083 776.903 382.523 778.035 385.353 779.362C385.954 779.645 386.556 779.927 387.139 780.228C393.93 783.765 397.75 787.744 398.829 792.342C400.438 799.239 395.575 805.907 390.853 812.344C387.033 817.561 383.425 822.495 383.655 826.881C384.345 840.622 388.165 850.03 395.327 855.689C408.043 865.699 429.265 861.702 446.33 858.484C455.067 856.839 462.618 855.406 467.994 855.972L476.819 856.892L468.313 859.421C444.42 866.53 412.075 873.127 374.282 873.127L374.265 873.144ZM178.334 802.44C214.075 830.046 255.759 850.136 299.263 860.659C349.205 872.738 394.355 870.969 430.007 864.779C416.567 866.442 402.861 866.141 393.117 858.466C385.212 852.241 380.826 841.665 380.101 827.058C379.818 821.434 383.974 815.757 387.988 810.257C392.232 804.456 396.618 798.461 395.363 793.138C394.531 789.583 391.295 786.382 385.477 783.341C384.946 783.058 384.398 782.81 383.832 782.545C380.755 781.112 376.917 779.326 375.856 773.862C374.017 764.436 390.623 750.235 406.327 737.678C408.856 735.662 411.049 733.912 411.633 733.257L412.11 732.744C436.48 706.518 451.636 672.439 454.784 636.786L457.436 607.076C458.197 604.476 460.637 599.754 468.56 597.19C473.176 595.705 478.782 591.973 484.742 586.402C498.395 573.652 518.767 571.582 534.259 581.362C539.901 584.917 545.33 588.861 550.582 592.663C552.28 593.883 553.925 595.086 555.552 596.253C560.61 599.86 567.436 599.56 572.176 595.51C578.436 590.169 586.377 583.219 591.93 578.338C594.883 575.738 598.685 574.217 602.611 574.076L617.785 573.51C622.082 573.351 625.973 571.229 628.431 567.709C630.889 564.172 631.544 559.804 630.217 555.719L627.211 546.435C625.478 541.111 620.791 537.309 615.521 536.956C608.359 536.478 601.073 532.393 592.637 527.689C591.594 527.105 590.55 526.521 589.489 525.938C572.883 516.759 569.806 504.292 567.348 494.282C565.349 486.147 563.775 479.727 556.295 476.137C544.941 470.69 530.829 487.314 520.536 499.446C517.653 502.841 515.177 505.777 512.985 507.952C509.925 511.012 507.131 512.303 504.443 511.896C499.827 511.189 496.927 505.706 493.584 499.375C488.686 490.091 483.133 479.604 471.319 480.541C466.969 480.895 459.93 482.451 452.467 484.096C442.334 486.341 430.856 488.888 423.039 489.065C419.538 489.136 416.514 491.452 415.506 494.83C413.189 502.558 408.007 513.063 396.512 519.129C384.752 525.337 369.101 525.407 349.948 519.341C312.297 507.404 325.879 427.982 330.99 398.094C331.573 394.681 332.033 391.975 332.228 390.384C333.926 376.802 340.787 344.58 347.861 331.422C374.335 282.117 400.792 275.768 410.943 275.326C421.006 274.884 433.42 279.694 447.816 285.265C456.092 288.466 465.483 292.109 475.351 295.045C487.023 298.528 504.407 311.757 521.226 324.561C537.903 337.241 556.79 351.636 562.891 349.726C563.404 349.567 564.023 349.231 564.43 348.028C565.65 344.261 566.198 339.805 566.057 334.765C565.668 320.918 560.044 307.336 550.229 296.495L532.738 277.165C532.597 277.006 522.747 265.352 508.634 254.776C501.649 249.542 499.367 244.413 497.546 240.292C495.494 235.659 494.239 232.847 487.288 231.68C478.871 230.265 477.19 231.415 474.874 233.006C473.317 234.067 471.39 235.394 467.588 236.172C461.504 237.41 455.986 234.775 449.001 231.45C444.509 229.31 439.416 226.887 433.226 225.066C432.625 224.889 431.9 224.659 431.051 224.358C419.591 220.397 406.628 223.969 398.794 233.236L376.634 259.41L354.511 266.979L353.874 266.678C352.176 265.9 311.979 247.649 280.199 246.889H280.04C280.04 246.889 279.951 246.889 279.916 246.889C276.291 246.889 272.877 249.188 271.374 252.654C268.474 262.363 244.476 340.742 225.482 340.742C224.952 340.742 224.421 340.671 223.89 340.548C212.519 337.524 200.635 343.448 196.214 354.306L195.878 355.12C186.876 377.191 168.749 394.203 146.148 401.79C140.471 403.7 135.908 407.715 133.326 413.109C130.762 418.467 130.461 424.462 132.495 430.033L132.743 430.687C141.214 458.081 151.577 472.618 162.082 471.645C163.621 471.504 165.018 472.317 165.672 473.715C166.309 475.094 166.026 476.703 164.929 477.782C156.458 486.147 152.037 497.43 152.797 508.713C153.788 523.126 162.153 534.02 178.405 541.978C191.616 548.451 197.275 551.811 200.317 553.632C201.608 554.41 202.386 554.87 202.987 555.1C209.177 557.576 210.591 556.586 210.804 556.373C212.077 555.082 209.76 549.565 208.77 547.195C208.399 546.293 208.063 545.515 207.85 544.914C203.765 533.189 198.477 529.988 194.233 527.406C187.973 523.621 184.259 520.473 186.699 504.415C192.73 464.784 194.003 454.845 194.145 453.713C194.092 448.814 196.956 444.393 201.448 442.43L209.937 438.734C212.077 437.814 214.482 438.062 216.374 439.406C218.267 440.75 219.292 442.943 219.116 445.26L219.08 445.613C218.479 453.501 227.41 502.028 259.136 528.644C279.315 545.586 304.516 550.343 334.032 542.774C346.252 539.644 359.303 546.806 368.093 553.367C371.152 555.648 373.027 559.132 373.221 562.935C373.416 566.701 371.93 570.309 369.171 572.873L361.779 579.682C358.384 582.812 353.98 584.457 349.364 584.369L322.466 583.697C322.094 583.608 312.934 581.787 306.037 590.983C303.066 594.944 300.448 598.941 298.255 602.902C297.689 603.928 297.601 605.148 298.025 606.245C298.45 607.359 299.352 608.225 300.484 608.614C310.122 611.939 329.451 616.484 350.708 609.623C355.66 608.031 364.733 599.719 376.245 586.243C378.456 583.661 381.533 582.105 384.929 581.857C388.289 581.61 391.56 582.688 394.107 584.917C404.046 593.6 420.599 611.674 419.697 635.283C418.477 666.904 399.819 690.584 370.993 697.092C359.25 699.744 352.689 695.111 347.897 691.733C345.032 689.717 343.334 688.603 341.671 689.01C339.302 689.593 336.295 693.431 332.493 700.77C327.754 709.896 328.072 713.822 328.479 718.791C328.779 722.558 329.133 726.82 327.294 733.841C320.662 759.077 305.205 787.426 281.685 791.352C275.159 792.448 269.482 792.59 264.459 792.714C252.363 793.014 245.077 793.209 238.463 805.5C236.146 809.815 234.042 811.849 231.654 812.114C228.577 812.45 226.243 809.779 223.554 806.685C219.045 801.503 213.952 795.614 203.8 799.239C190.784 803.89 183.764 803.307 178.334 802.44ZM460.85 571.671C442.67 571.671 427.92 559.946 422.615 555.737C421.059 554.499 420.157 552.66 420.139 550.679C420.121 548.681 420.988 546.824 422.527 545.55L427.372 541.554L431.033 538.193C442.953 527.282 458.391 521.287 474.538 521.287H474.679L501.684 521.34C512.808 521.357 523.224 526.822 529.573 535.947C533.817 542.066 538.804 549.211 543.013 555.277C544.711 557.717 544.605 560.812 542.748 563.129C540.874 565.463 537.885 566.224 535.126 565.092L519.811 558.796C510.845 555.118 500.747 555.489 492.081 559.822C470.753 570.504 469.78 570.716 469.303 570.804C466.42 571.406 463.591 571.671 460.85 571.671ZM474.555 524.806C459.293 524.806 444.703 530.483 433.438 540.793L429.707 544.206L424.773 548.274C424.065 548.857 423.658 549.724 423.676 550.644C423.676 551.563 424.101 552.394 424.808 552.96C430.609 557.576 448.258 571.582 468.578 567.338C469.002 567.197 472.115 565.853 490.489 556.656C500.075 551.864 511.251 551.439 521.155 555.525L536.47 561.82C538.009 562.457 539.3 561.767 539.989 560.918C540.679 560.07 541.068 558.673 540.113 557.311C535.886 551.245 530.917 544.083 526.673 537.964C520.996 529.793 511.64 524.894 501.684 524.859L474.679 524.806H474.555ZM304.374 529.758C304.197 529.758 304.02 529.758 303.826 529.74C290.368 528.644 279.615 525.124 271.869 519.306C265.344 514.39 255.635 503.266 243.043 486.218C242 484.803 241.575 483.052 241.894 481.319C242.194 479.586 243.167 478.1 244.635 477.128C246.686 475.748 250.736 474.563 255.829 473.06C268.014 469.47 286.406 464.041 284.832 452.776C284.001 446.798 282.374 439.141 280.659 431.023C276.892 413.268 273.019 394.911 275.459 386.493C277.564 379.207 279.651 372.999 281.03 369.091C282.286 365.483 285.575 362.954 289.183 362.795C290.898 362.724 292.242 363.149 293.268 364.122C294.683 365.466 295.373 367.747 295.408 371.284C295.408 372.681 295.16 374.326 294.895 375.9C294.541 378.04 294.082 380.958 294.754 381.877C294.807 381.948 294.913 382.107 295.355 382.178C298.467 382.673 299.316 381.24 301.35 375.458C301.916 373.866 302.553 372.044 303.384 370.17C306.62 362.831 308.353 348.417 306.938 340.53C306.532 338.231 305.895 336.233 305.276 334.287C303.684 329.247 302.164 324.472 305.188 316.479C307.504 310.36 313.482 303.958 318.08 299.678C323.757 294.408 331.733 292.374 338.913 294.39C343.564 295.699 346.358 298.104 347.189 301.517C347.366 302.242 347.454 303.003 347.437 303.781C347.366 307.672 344.837 311.297 341.017 313.03L336.72 314.958C327.736 318.99 322.784 321.218 320.998 322.951C319.972 323.942 320.043 324.472 321.582 328.151C323.067 331.705 325.313 337.081 326.25 346.225C328.337 366.81 317.655 415.195 311.006 440.555C309.839 444.994 308.442 449.504 306.956 454.279C300.82 474.033 294.488 494.459 304.339 511.808C305.948 514.655 307.664 517.255 309.414 519.518C310.988 521.552 311.201 524.205 309.98 526.451C308.848 528.538 306.744 529.775 304.41 529.793L304.374 529.758ZM289.537 366.297C289.537 366.297 289.395 366.297 289.307 366.297C287.131 366.385 285.133 367.977 284.337 370.241C282.976 374.113 280.924 380.25 278.837 387.466C276.644 395.035 280.606 413.763 284.107 430.281C285.84 438.451 287.467 446.179 288.334 452.263C290.332 466.552 270.172 472.494 256.82 476.438C252.381 477.747 248.189 478.985 246.58 480.063C245.926 480.505 245.501 481.16 245.36 481.92C245.218 482.698 245.413 483.477 245.873 484.113C258.093 500.649 267.82 511.843 273.974 516.476C281.172 521.888 291.305 525.177 304.091 526.221C305.241 526.309 306.249 525.761 306.797 524.753C307.345 523.727 307.257 522.578 306.549 521.658C304.692 519.253 302.889 516.53 301.191 513.541C290.58 494.848 297.442 472.724 303.508 453.218C304.975 448.496 306.355 444.022 307.504 439.654C314.083 414.523 324.694 366.65 322.643 346.578C321.758 337.966 319.636 332.872 318.239 329.512C314.667 320.971 316.223 320.263 335.199 311.739L339.496 309.811C342.078 308.644 343.776 306.257 343.829 303.728C343.829 303.25 343.794 302.791 343.688 302.366C343.175 300.279 341.229 298.741 337.905 297.803C331.909 296.123 325.207 297.839 320.432 302.278C316.099 306.292 310.511 312.252 308.442 317.734C305.86 324.578 307.062 328.38 308.601 333.226C309.255 335.278 309.927 337.382 310.369 339.911C311.908 348.506 310.086 363.609 306.567 371.602C305.789 373.353 305.205 375.033 304.639 376.642C302.818 381.806 301.102 386.67 294.754 385.679C293.516 385.485 292.508 384.901 291.836 383.964C290.297 381.842 290.845 378.552 291.358 375.351C291.606 373.848 291.836 372.433 291.818 371.337C291.783 368.118 291.164 367.057 290.792 366.704C290.615 366.527 290.297 366.332 289.537 366.332V366.297Z" fill="#B38358"/>
</g>
</g>
<path opacity="0.56" d="M224.421 445.684C224.668 442.342 223.572 439.158 221.308 436.718C219.062 434.295 215.879 432.898 212.589 432.898C210.962 432.898 209.353 433.234 207.832 433.888L199.343 437.584C192.995 440.343 188.927 446.515 188.856 453.395C188.591 455.481 187.123 466.499 181.482 503.637C178.847 520.951 182.614 526.575 191.509 531.968C195.4 534.32 199.414 536.761 202.863 546.682C203.093 547.372 203.464 548.256 203.888 549.282C203.941 549.406 204.012 549.565 204.065 549.724C203.747 549.547 203.393 549.317 203.022 549.105C199.909 547.266 194.144 543.817 180.739 537.256C166.344 530.2 158.934 520.756 158.085 508.395C157.43 498.721 161.215 489.012 168.501 481.743C170.835 479.427 171.879 475.996 170.959 472.83C169.827 468.957 166.361 466.375 162.417 466.375C162.152 466.375 161.869 466.375 161.604 466.411C161.445 466.411 161.286 466.428 161.109 466.428C155.414 466.428 146.307 456.666 137.853 429.255L137.8 429.06L137.5 428.247C135.395 422.517 136.58 416.133 140.966 411.234C142.823 409.165 145.263 407.732 147.898 406.848C171.95 398.766 191.244 380.657 200.811 357.154L201.147 356.34C203.941 349.496 210.503 345.093 217.877 345.093C219.433 345.093 221.007 345.305 222.528 345.694C223.642 345.959 224.65 346.083 225.658 346.083C239.877 346.083 251.549 321.855 261.081 298.175C269.252 277.908 275.353 257.977 276.396 254.564C277.121 253.149 278.518 252.212 279.969 252.212C310.811 252.937 351.327 271.329 351.734 271.524L354.298 272.691L379.817 263.955L402.507 237.144C406.345 232.599 411.597 229.345 417.451 228.373C421.5 227.701 425.568 228.054 429.388 229.363C430.307 229.681 431.139 229.947 431.793 230.141C437.576 231.839 442.457 234.156 446.772 236.225C452.75 239.072 458.409 241.76 464.581 241.76C465.978 241.76 467.357 241.619 468.701 241.353C473.547 240.363 476.182 238.559 477.933 237.374C479.294 236.437 479.436 236.349 481.134 236.349C482.478 236.349 484.282 236.543 486.474 236.897C490.613 237.587 490.86 238.135 492.77 242.432C494.733 246.871 497.421 252.937 505.521 259.003C519.174 269.225 528.617 280.402 528.706 280.508L546.373 300.032C555.339 309.935 560.468 322.315 560.839 334.889C560.945 338.372 560.68 341.485 560.061 344.208C553.005 341.98 536.08 329.106 524.532 320.316C507.343 307.229 489.569 293.718 476.978 289.951C467.322 287.069 458.426 283.62 449.832 280.295C435.524 274.76 423.163 269.985 412.357 269.985C411.827 269.985 411.314 269.985 410.801 270.021C399.748 270.498 371.028 277.218 343.28 328.911C340.928 333.279 338.647 339.487 336.542 346.384C335.729 349.072 331.856 348.63 331.573 345.835C331.573 345.765 331.573 345.712 331.555 345.641C330.777 338.054 328.46 331.104 327.187 327.762C326.727 326.541 327.258 325.18 328.425 324.596C331.078 323.287 334.845 321.59 338.93 319.768L343.245 317.823C348.922 315.258 352.653 309.776 352.777 303.852C352.795 302.614 352.671 301.393 352.388 300.226C351.645 297.185 349.116 291.685 340.398 289.244C338.099 288.607 335.711 288.271 333.306 288.271C326.374 288.271 319.689 290.924 314.507 295.752C307.221 302.543 302.428 308.856 300.271 314.551C296.592 324.26 298.538 330.414 300.271 335.844C300.854 337.7 301.42 339.451 301.774 341.414C302.835 347.339 301.845 357.773 299.758 364.741C297.424 358.073 291.676 357.454 289.625 357.454C289.43 357.454 289.218 357.454 289.006 357.454C283.17 357.72 278.094 361.575 276.096 367.305C274.699 371.302 272.576 377.615 270.436 384.99C267.819 394.009 270.772 409.501 275.547 432.084C277.245 440.113 278.854 447.683 279.668 453.465C280.605 460.203 263.575 465.226 254.414 467.932C248.649 469.629 244.493 470.85 241.769 472.689C241.186 473.078 240.638 473.52 240.142 474.015C233.935 480.046 230.628 472.989 228.576 468.338C224.757 459.708 224.544 445.666 224.544 445.666L224.421 445.684Z" fill="url(#paint1_linear_4555_638)"/>
<path opacity="0.56" d="M625.07 557.064L622.17 548.098C621.109 544.826 618.297 542.492 615.167 542.28C606.82 541.714 598.685 537.169 590.054 532.358C589.029 531.775 587.985 531.209 586.924 530.625C568.284 520.333 564.765 506.026 562.201 495.592C560.185 487.403 559 483.371 554.013 480.966C553.235 480.595 552.474 480.418 551.625 480.418C543.685 480.418 531.748 494.513 524.603 502.931C521.649 506.415 519.103 509.421 516.768 511.756C516.751 511.773 516.715 511.809 516.698 511.826C513.373 515.133 508.492 516.3 503.929 515.204C503.646 515.133 503.363 515.063 503.098 514.992C498.005 513.718 493.672 510.447 491.09 505.884C490.347 504.575 489.64 503.231 488.933 501.887C483.963 492.479 479.913 485.812 472.839 485.812C472.486 485.812 472.132 485.812 471.778 485.847C467.781 486.166 460.92 487.686 453.669 489.296C443.306 491.595 431.545 494.194 423.216 494.389C422.013 494.424 420.987 495.203 420.651 496.352C417.698 506.202 407.423 529.157 375.785 529.157C371.912 529.157 367.827 528.804 363.547 528.096C359.02 527.354 356.102 532.694 359.214 536.054L371.346 549.141C376.616 553.067 379.393 559.522 378.438 566.225C377.836 570.416 375.626 574.218 372.513 577.101L365.457 583.609C361.195 587.535 355.66 589.693 349.859 589.693H349.311L322.766 589.056H322.2L321.528 588.914C321.528 588.914 321.033 588.826 320.255 588.826C317.566 588.826 313.676 589.763 310.369 594.185C308.689 596.43 307.132 598.676 305.7 600.94C304.674 602.549 305.505 604.672 307.345 605.167C312.756 606.635 319.795 607.908 327.788 607.908C335.181 607.908 342.361 606.794 349.169 604.601C352.034 603.681 359.745 597.492 372.089 583.096C373.963 580.903 376.28 579.082 378.95 577.968C382.965 576.305 387.192 576.164 391.029 577.296C395.963 578.763 401.322 577.455 405.018 573.865L411.473 567.604C415.257 563.943 416.495 558.55 415.257 553.439C414.886 551.9 414.815 550.273 415.081 548.628C415.558 545.693 417.256 543.093 419.555 541.201L423.941 537.575L427.531 534.268C440.423 522.472 457.153 515.965 474.608 515.965L496.272 516.018C497.563 516.018 498.854 516.106 500.145 516.265C505.945 517.008 512.524 517.786 513.585 517.91C521.756 520.509 528.971 525.709 533.976 532.924C538.22 539.043 543.207 546.188 547.416 552.254C549.945 555.897 550.264 560.583 548.212 564.492C547.363 566.207 545.736 570.133 546.284 575.156C547.133 582.937 552.545 587.464 553.712 588.402C555.392 589.622 557.037 590.824 558.664 591.974C560.521 593.3 562.802 593.795 565.119 593.318C566.551 593.035 567.842 592.31 568.939 591.373C575.588 585.713 584.006 578.321 588.463 574.395C592.336 570.982 597.305 569.001 602.451 568.824L617.625 568.259C620.49 568.152 623.054 566.614 624.522 564.085C625.742 561.963 625.866 559.381 625.106 557.064H625.07Z" fill="url(#paint2_linear_4555_638)"/>
<path d="M374.759 875.797C194.445 875.797 47.749 729.101 47.749 548.787C47.749 490.162 64.8856 427.982 98.6637 363.963C125.598 312.942 163.107 260.63 210.184 208.478C290.226 119.788 371.382 61.4281 372.195 60.8445L374.759 59.0229L377.324 60.8445C378.137 61.4104 459.293 119.187 539.335 207.593C586.412 259.587 623.921 311.863 650.855 362.99C684.633 427.133 701.77 489.649 701.77 548.805C701.77 729.119 555.074 875.815 374.759 875.815V875.797ZM374.759 69.9168C360.399 80.5277 288.068 135.333 216.622 214.526C170.075 266.13 133.008 317.823 106.427 368.172C73.3567 430.882 56.5738 491.629 56.5738 548.787C56.5738 724.22 199.308 866.955 374.742 866.955C550.175 866.955 692.91 724.22 692.91 548.787C692.91 491.117 676.144 430.015 643.056 367.181C616.493 316.726 579.426 265.069 532.88 213.659C461.45 134.749 389.137 80.4393 374.759 69.9168Z" fill="#E6965E"/>
<path d="M374.759 923.547C168.112 923.547 0 755.435 0 548.787C0 271.348 330.353 32.0541 344.412 22.0091L374.6 0.433594L404.877 21.8499C408.361 24.3081 491.179 83.2871 574.704 175.531C624.452 230.478 664.278 286.061 693.087 340.725C730.525 411.801 749.501 481.797 749.501 548.787C749.501 755.435 581.389 923.547 374.742 923.547H374.759ZM374.636 11.2921L349.576 29.2068C335.641 39.1457 8.84242 275.857 8.84242 548.787C8.84242 750.554 172.993 914.704 374.759 914.704C576.526 914.704 740.676 750.554 740.676 548.787C740.676 483.247 722.037 414.63 685.288 344.846C656.833 290.836 617.448 235.872 568.178 181.473C485.29 89.9366 403.25 31.5059 399.783 29.0653L374.636 11.2744V11.2921Z" fill="#E6965E"/>
</g>
<defs>
<linearGradient id="paint0_linear_4555_638" x1="374.759" y1="871.376" x2="374.759" y2="64.4526" gradientUnits="userSpaceOnUse">
<stop offset="0.05" stop-color="#25334C"/>
<stop offset="0.18" stop-color="#212C45"/>
<stop offset="0.56" stop-color="#191F39"/>
<stop offset="0.91" stop-color="#171B35"/>
</linearGradient>
<linearGradient id="paint1_linear_4555_638" x1="136.456" y1="388.88" x2="560.786" y2="388.88" gradientUnits="userSpaceOnUse">
<stop stop-color="#EBDAAF"/>
<stop offset="1" stop-color="#EBCCA2"/>
</linearGradient>
<linearGradient id="paint2_linear_4555_638" x1="305.169" y1="544.154" x2="625.548" y2="544.154" gradientUnits="userSpaceOnUse">
<stop stop-color="#EBDAAF"/>
<stop offset="1" stop-color="#EBCCA2"/>
</linearGradient>
<clipPath id="clip0_4555_638">
<rect width="749.501" height="923.113" fill="white" transform="translate(0 0.433594)"/>
</clipPath>
</defs>
</svg>
